<?xml version="1.0" encoding="utf-8"?>
<!-- Generator: Adobe Illustrator 23.1.1, SVG Export Plug-In . SVG Version: 6.00 Build 0)  -->
<svg version="1.1" id="Layer_1" xmlns="http://www.w3.org/2000/svg" xmlns:xlink="http://www.w3.org/1999/xlink" x="0px" y="0px"
	 viewBox="0 0 381 300.4" style="enable-background:new 0 0 381 300.4;" xml:space="preserve">
<style type="text/css">
	.st0{fill:#DCD8C8;}
	.st1{fill:#C16C29;}
	.st2{fill:#F3C0A6;}
	.st3{fill:#90C4C2;}
	.st4{fill:#B2E0E0;}
	.st5{fill:#631F19;}
	.st6{fill:#DDA38A;}
	.st7{fill:#E07E5F;}
	.st8{opacity:0.7;fill:#E07E5F;}
	.st9{fill:#411311;}
	.st10{fill:#973030;}
	.st11{fill:#EDEBE1;}
	.st12{fill:#FFFFFF;}
	.st13{opacity:0.6;}
</style>
<g>
	<g>
		<path class="st0" d="M120,284.2c0,7.1,26.6,16.2,64.1,16.2c37.5,0,71.8-9.1,71.8-16.2c0-7.1-30.4-13-67.9-13
			C150.4,271.2,120,277.1,120,284.2z"/>
		<g>
			<g>
				<path class="st1" d="M179.1,28.4c5.4-1.7,3.2-3.3,4.1-8c1.2-6.6,6.7-7,12.1-7.4c4.6-0.4,9-1.1,11.5-5.4c1.4-2.3,1-5.9,3.2-7.5
					c3.8,3.3,2,12.8-1.2,16.1c-2.4,2.3-13.3,5.6-8.8,10.9c3.6,4,10.4,0,9.9,8.6c-0.5,7-8.1,15.1-15.5,14.9l0.3-1.1
					c-0.3,0.2-0.8,0.3-1.3,0.1c-4.2,0-8.5,0.3-12.7,0.1c-5.5-0.6-22.2-2.2-23.6-9.5C155.2,28.7,173.4,30.2,179.1,28.4z"/>
			</g>
			<g>
				<path class="st2" d="M231,208c7.7-0.6,4-16,6.8-20.3c6.2-10.2,6.8,8.9,6.8,12.3c2.5-4.3,6.9-15,11.4-12.9
					c6.2,2.9-3.7,13.2-8,17.9c2.5-2.8,18.8-8.3,15.4,0.3c-1.5,3.7-13.7,7-17.2,7.8c-4.1,0.9-7.5,1.4-11.2,1.8
					c-2.7,0.3-4.9,1.2-6.8-1.3C227,211.7,227.9,208.3,231,208"/>
			</g>
			<g>
				<path class="st2" d="M113.3,208.9c-7.7-0.6-4-16-6.8-20.3c-6.2-10.2-6.8,8.9-6.8,12.3c-2.5-4.3-6.9-15-11.4-12.9
					c-6.2,2.9,3.7,13.2,8,17.9c-2.5-2.8-18.8-8.3-15.4,0.3c1.5,3.7,13.7,7,17.2,7.8c4.1,0.9,7.5,1.4,11.2,1.8
					c2.7,0.3,4.9,1.2,6.8-1.3C117.3,212.6,116.4,209.2,113.3,208.9"/>
			</g>
			<g>
				<path class="st3" d="M191,205.5c16,8,23.6,4.3,40.2,1.8c1.2,2.5,1.8,5.5,2.5,8c-5.9,3.3-9.8,5.2-19.3,5.9
					c-8,0.3-12.6-0.1-20.3-1.6c11.3,20.1,11.8,39.2,14.9,42.3c1.5,1.5,15.4,8,19.7,8c4.9-0.3,3.4-1.5,4.9-6.5c0.9-3.4,1.6-6,4.9-5.2
					c4.2,1,3.4,6.5,2.5,11.1c-2.1,10.9-7.3,9.6-13.2,9.9c-19.7,0.9-27.1-6.7-53.4-4.6c-11.8,0.9-19.7,5.2-22.8,6.4
					c-6.8,2.8-19.4,3.7-26.8,4c-5.5,0.3-6.5-1.2-7.4-7.1c-0.6-3.1-2.5-13.9,1.2-15.4c4.6-1.8,4.5,4,6.2,8.3c1.2,2.9-0.3,3.1,3.4,3.4
					c2.2,0,12.5-1.3,20.9-9.9c4.5-4.5,4.9-16.6,5.2-23c0-2.5-0.5-21.5-0.5-21.5s-11.1,2-17.8,2c-7.5,0-11.6-0.6-18.6-3
					c-1.5-0.6-7.1-2.2-7.1-2.2s-0.2-3,1-5.4c0.8-1.6,2-2.9,2-2.9s12.4,2.6,22.3,2.1c8.1-0.4,17.2-4,21.3-6.5
					c5.2-3.2,10.8,4.3,17.6,3.1C181.1,206.1,184.2,204,191,205.5"/>
			</g>
			<g>
				<path class="st4" d="M182,197.2c5.5,0.6,11.4,0,12.3,6.8c0.6,5.2-2.8,11.4-8,12.6c-4.3,0.9-10.6-5.5-10.6-5.5s-7.2,7.4-11.6,7.4
					c-9.9-0.3-12.3-12.9-4.6-18.2C164.8,196.9,175.6,196.9,182,197.2"/>
			</g>
			<g>
				<path class="st2" d="M181.7,204.1c-3.2-20.8,21.3-23.1,36-27.7c20.3-6,49-13.4,64.7-28.2c23.1-21.7,20.3-60.1-2.8-80.9
					c-12.9-11.6-26.3-19.4-43.9-23.1c-13.4-2.3-28.2-4.2-42-3.7c-31.9,0.5-66.1,8.8-88.7,32.3c-14.8,16.2-23.6,33.3-21.7,55.9
					c1.8,24.5,20.8,32.3,36,39.3c8.5,3.8,22.6,7.9,31.4,11.1c5.1,1.8,11.1,2.3,14.8,6c6,5.1,4.4,11.3,3.7,17.6
					C168.6,208.8,180.4,213.4,181.7,204.1"/>
			</g>
			<g>
				<path class="st5" d="M147.2,132.8c8.3-14.8,20-23.4,37.6-27.1c13.8-2.9,44.1-4.6,62.8,11.7c11.3,9.9,14.8,29-2.2,34.8
					c-12.3,4.3-22.5-3.4-34.5-3.4c-19.6,0.6-25.6,12.9-40.7,13.2C155.6,162.4,137.7,148.5,147.2,132.8z"/>
			</g>
			<g>
				<path class="st2" d="M97.3,149.8c-14.8,13.6-49.3,2.5-35.7-20.3c4.3-7.4,20.9-11.7,29-7.4c9.2,4.3,8,18.5,8.6,27.1"/>
			</g>
			<g>
				<path class="st6" d="M88.1,143.5c-4.6,1.4-13.1,3.3-15.1-2.8c-1.7-5.2,6.6-8.2,11.7-9.1C85.2,135.8,85.8,140.2,88.1,143.5"/>
			</g>
			<g>
				<path class="st2" d="M287.2,139.3c13.1,12.8,45.3,2.9,33.3-18.7c-3.8-7-18.5-11.1-25.6-7C286.7,117.7,287.8,131.1,287.2,139.3"
					/>
			</g>
			<g>
				<path class="st6" d="M293.7,132.6c4.6,1.4,13.1,3.4,15.1-2.7c1.7-5.2-6.6-8.2-11.7-9.2C296.7,124.9,296,129.3,293.7,132.6"/>
			</g>
			<g>
				<path class="st7" d="M193.8,78.5c5.1,2.3,26.2,1.1,16.9,10.8c-4.4,4.6-15.3-0.5-19.9-5.2C186.1,79.3,187.7,75.1,193.8,78.5"/>
			</g>
			<path class="st8" d="M130,133.1c-1.9,6.9-9.3,10.9-16.4,8.9c-7.1-2-11.3-9.2-9.4-16.1c1.9-6.9,6.6-11.2,13.8-9.2
				C125,118.7,131.9,126.2,130,133.1z"/>
			<path class="st8" d="M285.5,105.7c4,6,2.2,14.1-4,18.2c-6.2,4.1-14.4,2.6-18.3-3.4c-4-6-4.1-12.3,2-16.4
				C271.3,100,281.5,99.8,285.5,105.7z"/>
			<g>
				<path class="st9" d="M171,113.6c2.2-1.8,9.2-4.3,11.7-1.8c3.4,3.1-2.5,7.1-1.2,10.8c1.5,4.9,7.7,4,9.2-0.3c1.2-4.3-7-9.8-3-11.5
					c10.9-4.5,21.2,13,11.3,21.9C185.7,145,151.2,128.4,171,113.6z"/>
			</g>
			<g>
				<path class="st10" d="M211,148.8c-19.6,0.6-25.6,12.9-40.7,13.2c-8.2,0.2-17.4-4-22.3-10.5C154,140.1,204.8,136.2,211,148.8z"/>
			</g>
			<g>
				<path class="st11" d="M97.8,238.8c0.9-4.6,5.5-10.2,9.9-11.3c3-0.7,8.3,0.9,7.6,5.5C114.6,238.3,102.4,238.8,97.8,238.8"/>
			</g>
			<g>
				<path class="st11" d="M14.3,252.4"/>
			</g>
			<g>
				<path class="st11" d="M14.3,252.4c-4.5,0.6-11.2-0.4-13.4-4.7c-2.1-4.2-0.4-10.6,5.1-9.8"/>
			</g>
			<path class="st1" d="M144.7,71c-0.2,1.5-2.8,0.5-7.4-0.1c-4.6-0.5-9.3-0.3-9.2-1.8c0.2-1.5,4.4-3.8,9-3.3
				C141.6,66.4,144.8,69.5,144.7,71z"/>
			<path class="st1" d="M250.6,60.2c0,1.5-2.7,0.8-7.3,0.9c-4.6,0.1-9.3,0.9-9.3-0.6c0-1.5,3.9-4.3,8.5-4.4
				C247,56,250.6,58.7,250.6,60.2z"/>
		</g>
	</g>
	<path class="st12" d="M227.3,149.7c-0.1-2.1,1.4-2.2,3.1-2.2c1.8-0.1,3.8,0.8,3.9,2.9c0.1,2.1-0.5,4.7-3.6,4.8
		C227.4,155.3,227.4,151.8,227.3,149.7z"/>
	<g>
		<path class="st2" d="M221.2,150.4l0.3,14l17.9-3.7l-0.4-7.1C233,153.9,227.2,151.9,221.2,150.4z"/>
	</g>
</g>
<g>
	<g class="st13">
		<path class="st11" d="M302.6,213.1c-0.9-4.6-5.5-10.2-9.9-11.3c-3-0.7-8.3,0.9-7.6,5.5C285.7,212.7,297.9,213.1,302.6,213.1"/>
	</g>
	<g class="st13">
		<path class="st11" d="M366.7,245c4.5,0.6,11.2-0.4,13.4-4.7c2.1-4.2,0.4-10.6-5.1-9.8C368.6,231.5,366.9,240.4,366.7,245"/>
	</g>
	<g class="st13">
		<path class="st11" d="M343.1,220.5c4.1-0.7,7.2-5.5,7.5-9.4c0.2-3.1-3.1-7.2-6.7-5.7c-3.9,1.6-2.6,11.7-1.6,15"/>
	</g>
	<g class="st13">
		<path class="st11" d="M279.7,232.7c-1.9-3.6-7.5-5-11.3-4.1c-3,0.8-5.8,5.2-3.3,8.1c2.8,3.2,11.9-1.3,14.7-3.2"/>
	</g>
	<g class="st13">
		<path class="st11" d="M6,237.8c6.4,1.1,8.1,10,8.3,14.6"/>
	</g>
	<g class="st13">
		<path class="st11" d="M37.8,227.9c-4.1-0.6-7.2-5.5-7.5-9.4c-0.2-3.1,3.1-7.2,6.7-5.7c3.9,1.6,2.6,11.7,1.6,15"/>
	</g>
	<g class="st13">
		<path class="st11" d="M240.3,70.1C255.7,19.3,323,50,328.7,89.3c4.6,31.3,0.6,63.5,0.6,95.5c0,19.4-0.3,41-2.9,59.6
			c4-5.7,17.1-16.5,23.4-7.4c5.7,9.1-9.7,21.1-14.2,27.4c7.4-3.4,35.9-8,23.9,8c-6.8,9.7-35.3,6.3-46.2,4.6
			c-10.3-1.1-29.6-9.7-30.2-22.2c-0.6-12,14.2-4,21.1-1.1c-1.1-6.3-10.8-12.5-5.7-19.4c5.1-6.8,15.4-0.6,18.8,4
			c3.4-16,2.3-35.9,3.4-52.4c1.1-15.4,0.6-30.8,0.6-46.2c0-26.8,3.4-47.9-12.5-72.4c-8-11.4-23.4-17.1-37-14.8
			c-10.3,1.7-18.3,15.5-20.6,21l-4.3-2L240.3,70.1z"/>
	</g>
	<g class="st13">
		<path class="st11" d="M140,78.3c-15.4-50.7-82-20.9-87.7,18.4c-4.6,31.3-0.6,63.5-0.6,95.5c0,19.4,0.3,41,2.9,59.6
			c-4-5.7-17.1-16.5-23.4-7.4c-5.7,9.1,9.7,21.1,14.2,27.4c-7.4-3.4-35.9-8-23.9,8c6.8,9.7,35.3,6.3,46.2,4.6
			c10.3-1.1,29.6-9.7,30.2-22.2c0.6-12-14.2-4-21.1-1.1c1.1-6.3,10.8-12.5,5.7-19.4c-5.1-6.8-15.4-0.6-18.8,4
			c-3.4-16-2.3-35.9-3.4-52.4c-1.1-15.4-0.6-30.8-0.6-46.2c0-26.8-3.4-47.9,12.5-72.4c8-11.4,23.4-17.1,37-14.8
			c10.3,1.7,19.3,16.6,21.6,22.1l3.4-1.9L140,78.3z"/>
	</g>
</g>
</svg>
